<?xml version="1.0" standalone="no"?>
<!DOCTYPE svg PUBLIC "-//W3C//DTD SVG 20010904//EN"
 "http://www.w3.org/TR/2001/REC-SVG-20010904/DTD/svg10.dtd">
<svg version="1.0" xmlns="http://www.w3.org/2000/svg"
 width="332.000000pt" height="332.000000pt" viewBox="0 0 332.000000 332.000000"
 preserveAspectRatio="xMidYMid meet">
<metadata>
Created by potrace 1.11, written by Peter Selinger 2001-2013
</metadata>
<g transform="translate(0.000000,332.000000) scale(0.100000,-0.100000)"
fill="#000000" stroke="none">
<path d="M3048 2004 c-56 -59 -121 -124 -143 -145 -40 -40 -38 -45 18 -40 25
3 21 -9 -16 -49 -101 -110 -234 -258 -247 -274 -8 -11 28 16 81 60 53 43 138
113 189 154 51 41 109 90 129 107 20 18 39 33 44 33 4 0 7 5 7 11 0 5 -5 7
-10 4 -6 -3 -20 -3 -32 1 -19 6 -20 8 -6 18 13 9 80 67 162 140 12 10 39 33
60 52 l40 34 -86 0 -86 0 -104 -106z"/>
<path d="M1384 2046 c-121 -29 -186 -120 -179 -253 6 -125 85 -205 216 -220
61 -7 122 11 164 49 l36 31 -36 24 -35 24 -22 -21 c-65 -60 -175 -35 -218 50
-44 86 -14 192 65 230 52 25 78 25 131 0 42 -21 42 -21 73 -2 l32 19 -35 31
c-20 17 -52 34 -73 37 -21 4 -45 8 -53 10 -8 2 -38 -2 -66 -9z"/>
<path d="M445 2041 c-19 -6 -20 -15 -20 -228 l0 -223 30 -4 c16 -3 78 -4 138
-4 114 1 109 -2 111 53 1 19 -6 20 -97 20 l-97 0 0 191 c0 191 0 192 -22 196
-13 2 -32 2 -43 -1z"/>
<path d="M813 2040 c-20 -6 -28 -69 -9 -71 13 -1 255 -1 277 0 18 1 30 43 18
62 -7 12 -247 20 -286 9z"/>
<path d="M1658 2025 c-9 -49 -1 -55 73 -55 l69 0 -1 -87 c0 -49 0 -135 0 -193
l1 -106 34 -2 c19 -1 38 3 42 9 4 7 7 85 6 173 -1 219 -6 206 73 206 36 0 66
3 66 8 7 39 3 62 -11 63 -8 0 -90 1 -182 2 -159 2 -167 1 -170 -18z"/>
<path d="M2128 2025 c-9 -51 -3 -55 98 -55 81 0 97 -3 114 -20 24 -24 25 -49
6 -76 -12 -16 -29 -20 -116 -22 l-101 -4 3 -36 3 -36 60 -1 59 0 48 -85 c26
-47 49 -89 51 -94 2 -5 27 -11 55 -12 61 -3 62 -13 -20 120 -27 43 -47 79 -46
80 84 34 107 72 100 162 -1 11 -16 34 -33 52 -34 35 -70 43 -198 46 -72 1 -80
-1 -83 -19z"/>
<path d="M2578 2042 l-27 -3 1 -225 c1 -220 1 -224 22 -229 12 -3 30 -3 41 -2
19 4 20 12 20 230 1 246 3 236 -57 229z"/>
<path d="M2749 2039 c-9 -5 100 -172 119 -183 4 -1 19 9 34 24 l28 27 -47 66
c-43 58 -52 66 -86 69 -21 2 -43 1 -48 -3z"/>
<path d="M126 1997 c-21 -55 -20 -62 8 -133 45 -112 47 -104 -32 -104 -64 0
-70 -2 -80 -25 -7 -14 -12 -30 -12 -35 0 -6 42 -10 96 -10 l95 0 21 -47 c11
-27 26 -51 32 -55 17 -12 87 -6 82 6 -11 27 -157 366 -174 404 l-19 43 -17
-44z"/>
<path d="M799 1855 c-1 0 -2 -17 -3 -37 l-2 -38 148 0 148 0 0 38 0 38 -145 0
c-80 -1 -145 -1 -146 -1z"/>
<path d="M2992 1736 l-23 -23 46 -66 46 -66 49 2 c30 1 46 5 43 12 -26 44
-120 165 -128 164 -5 0 -20 -11 -33 -23z"/>
<path d="M795 1622 l1 -37 157 -1 c86 -1 158 3 158 7 1 5 1 18 1 29 0 11 0 24
-1 30 -1 5 -65 9 -159 9 l-158 0 1 -37z"/>
<path d="M143 1294 l0 -72 33 -4 c34 -4 81 8 71 18 -3 3 -22 6 -41 6 -28 0
-36 4 -36 18 0 14 9 20 33 22 39 4 39 23 0 23 -18 1 -29 7 -31 18 -3 13 4 17
32 17 22 0 36 5 36 13 0 8 -16 12 -49 12 l-49 0 1 -71z"/>
<path d="M316 1363 c-3 -3 -6 -37 -6 -74 0 -61 2 -67 23 -71 34 -6 69 2 64 15
-2 7 -16 11 -30 9 -29 -4 -29 -4 -29 70 1 45 -8 65 -22 51z"/>
<path d="M466 1362 c-3 -3 -6 -36 -6 -74 l0 -68 40 0 c22 0 43 0 48 0 4 0 7 6
7 13 0 7 -10 11 -23 9 -25 -4 -55 15 -46 29 3 5 18 9 34 9 16 0 32 5 35 10 6
10 2 12 -37 13 -24 1 -40 16 -32 29 3 4 21 8 40 8 19 0 34 5 34 10 0 6 -3 10
-7 11 -60 6 -83 6 -87 1z"/>
<path d="M663 1360 c-89 -36 -27 -174 63 -140 35 14 31 33 -5 25 -42 -9 -71 9
-71 44 0 37 22 55 60 48 38 -8 49 10 15 23 -31 12 -33 12 -62 0z"/>
<path d="M800 1353 c0 -7 9 -13 20 -13 22 0 23 -3 20 -72 -1 -38 2 -48 14 -48
13 0 16 12 16 60 0 53 2 60 19 60 19 0 40 19 24 21 -52 7 -113 3 -113 -8z"/>
<path d="M975 1359 c-3 -4 -5 -38 -4 -74 1 -47 6 -65 15 -65 9 0 14 11 14 30
0 17 4 30 8 30 4 0 16 -13 25 -30 10 -16 25 -30 33 -30 13 0 12 5 -3 31 -17
29 -17 31 0 40 21 12 22 42 3 58 -17 15 -84 22 -91 10z m70 -38 c0 -8 -10 -16
-22 -17 -18 -3 -23 1 -23 17 0 15 5 20 23 17 12 -2 22 -9 22 -17z"/>
<path d="M1149 1368 c-1 -2 -3 -36 -5 -75 -2 -59 0 -73 12 -73 11 0 14 15 14
69 0 39 -4 73 -10 76 -5 3 -11 5 -11 3z"/>
<path d="M1273 1358 c-22 -11 -30 -24 -38 -67 -9 -45 63 -94 105 -71 32 17 24
32 -13 25 -25 -5 -37 -2 -47 10 -33 40 -15 87 33 85 47 -3 51 -1 37 15 -14 17
-45 18 -77 3z"/>
<path d="M1446 1299 c-21 -45 -30 -75 -24 -78 6 -2 17 4 23 13 7 9 25 16 40
16 15 0 33 -7 40 -16 6 -9 17 -15 23 -13 7 3 1 27 -17 67 -43 96 -46 96 -85
11z m54 -10 c0 -10 -7 -19 -15 -19 -15 0 -21 31 -9 43 11 10 24 -3 24 -24z"/>
<path d="M1625 1360 c-7 -11 -11 -128 -4 -134 5 -5 38 -9 67 -7 33 2 27 21 -8
21 -17 0 -31 6 -31 13 -1 6 -2 33 -3 59 -2 49 -9 67 -21 48z"/>
<path d="M1879 1351 c-20 -16 -22 -23 -13 -38 6 -10 23 -24 37 -31 38 -19 36
-46 -3 -39 -35 8 -49 -8 -20 -23 22 -12 60 -5 72 14 16 23 8 55 -14 62 -13 3
-29 11 -36 17 -19 15 3 35 33 29 27 -5 35 12 9 22 -26 10 -41 7 -65 -13z"/>
<path d="M2043 1363 c-9 -3 -13 -27 -13 -74 0 -62 2 -69 20 -70 63 -3 74 -2
78 9 4 12 -7 15 -45 12 -17 -1 -23 4 -23 19 0 15 8 20 33 23 37 3 35 22 -3 23
-15 0 -26 7 -28 18 -3 14 4 17 32 17 20 0 36 5 36 10 0 6 -3 11 -7 11 -29 4
-70 5 -80 2z"/>
<path d="M2199 1359 c0 -5 0 -29 0 -54 0 -79 1 -85 16 -85 11 0 15 8 13 26 -4
38 17 41 32 4 7 -18 20 -30 31 -30 17 0 17 1 1 30 -12 21 -14 33 -6 38 18 12
23 39 11 56 -13 18 -96 30 -98 15z m74 -34 c-3 -20 -33 -31 -43 -15 -5 8 -6
18 -3 23 7 11 48 4 46 -8z"/>
<path d="M2360 1357 c0 -28 47 -132 61 -135 11 -2 24 19 43 68 16 39 26 73 24
75 -9 10 -28 -14 -46 -59 l-19 -49 -18 51 c-17 48 -45 78 -45 49z"/>
<path d="M2556 1363 c-3 -3 -6 -37 -6 -75 0 -51 3 -68 14 -68 10 0 13 17 13
70 0 67 -6 88 -21 73z"/>
<path d="M2682 1360 c-46 -19 -52 -108 -9 -132 30 -17 45 -18 73 -8 39 15 29
31 -15 24 -34 -5 -41 -3 -51 16 -6 12 -9 33 -6 46 7 28 45 47 63 32 7 -5 18
-6 24 -2 9 5 7 11 -6 21 -21 15 -40 16 -73 3z"/>
<path d="M2841 1361 c-6 -4 -10 -36 -10 -73 l1 -66 45 -4 c28 -2 48 2 55 9 8
10 4 13 -18 14 -16 1 -35 1 -41 0 -7 -1 -13 7 -13 19 0 16 6 20 35 20 22 0 35
5 35 13 0 8 -12 13 -32 13 -23 -1 -34 4 -36 17 -3 14 4 17 32 17 20 0 36 5 36
10 0 11 -1 11 -47 15 -17 1 -36 -1 -42 -4z"/>
<path d="M3013 1355 c-28 -19 -20 -51 18 -71 40 -20 39 -49 -1 -41 -36 8 -49
-9 -18 -24 37 -17 78 4 78 39 0 23 -7 32 -36 45 -30 15 -34 20 -24 32 9 10 17
12 30 5 13 -7 19 -6 23 4 10 27 -37 34 -70 11z"/>
</g>
</svg>
